<?xml version="1.0" encoding="UTF-8"?>
<svg xmlns="http://www.w3.org/2000/svg" version="1.1" viewBox="0 0 1000 1000">
  <defs>
    <style>
      .cls-1 {
        fill: #2b7883;
      }

      .cls-2 {
        fill: #fff;
      }
    </style>
  </defs>
  <!-- Generator: Adobe Illustrator 28.7.1, SVG Export Plug-In . SVG Version: 1.2.0 Build 142)  -->
  <g>
    <g id="Layer_1">
      <rect class="cls-1" x="66.7" y="83.9" width="860" height="823.9" rx="80.2" ry="80.2"/>
      <g>
        <path class="cls-2" d="M793.5,618c39.3,48.7,36.8,119-4.9,163.7-23.4,25.1-55.7,38.4-88.5,39-41.8.8-78.1-28-90.2-68-36.8-120.8-130.1-215.6-247.7-254.1h0c-60.1-17.9-114.2-54.6-153.4-102.9-54-57.4-46.1-145.8,6.7-187.8,27.1-21.6,63.9-29.2,99.5-21.9,34.1,6.9,61.4,32.9,70.6,66.5,35.5,128.6,134.8,227.7,259.7,265.3h0c58.9,18.6,110.2,53.8,148.3,100.3h0Z"/>
        <path class="cls-2" d="M741.4,464.3c-128.2-8-238.6-95.1-277.5-215.3-9.6-29.6,13.7-59.7,44.8-57.7,126.2,7.9,238,93.1,277.6,215.2,9.7,29.8-13.7,59.8-44.9,57.8h0Z"/>
        <path class="cls-2" d="M255.5,542.7c128.2,8,238.6,95.1,277.5,215.3,9.6,29.7-13.7,59.7-44.8,57.7-126.2-7.8-238-93.1-277.6-215.2-9.6-29.8,13.6-59.8,44.9-57.8h0Z"/>
      </g>
    </g>
  </g>
</svg>