<svg width="1000" height="1000" viewBox="0 0 1000 1000" fill="none" xmlns="http://www.w3.org/2000/svg">
<path d="M869.14 644.309C918.02 704.829 914.85 792.329 863.07 847.889C833.99 879.099 793.87 895.599 753.06 896.349C701.01 897.299 655.96 861.529 640.82 811.719C595.12 661.429 478.98 543.639 332.76 495.779C257.97 473.569 190.75 427.929 141.93 367.799C74.76 296.359 84.64 186.449 150.23 134.239C183.96 107.399 229.74 97.9388 274 106.959C316.43 115.609 350.31 147.909 361.82 189.649C405.94 349.589 529.52 472.849 684.76 519.629L684.71 519.789C757.92 542.779 821.76 586.569 869.13 644.309H869.14Z" fill="#2A7882"/>
<path d="M804.36 453.122C644.89 443.182 507.69 334.852 459.24 185.342C447.29 148.472 476.25 111.162 514.92 113.572C671.86 123.332 810.91 229.372 860.15 381.202C872.15 418.202 843.18 455.542 804.35 453.122H804.36Z" fill="#2A7882"/>
<path d="M200.092 550.612C359.562 560.552 496.762 668.882 545.212 818.392C557.162 855.262 528.202 892.572 489.532 890.162C332.592 880.402 193.542 774.362 144.302 622.532C132.302 585.532 161.272 548.192 200.102 550.612H200.092Z" fill="#2A7882"/>
</svg>
