<?xml version="1.0" encoding="UTF-8"?>
<svg id="Layer_1" data-name="Layer 1" xmlns="http://www.w3.org/2000/svg" viewBox="0 0 1000 726.61">
  <defs>
    <style>
      .cls-1 {
        fill: #2b7883;
      }

      .cls-1, .cls-2 {
        stroke-width: 0px;
      }

      .cls-2 {
        fill: #63a0a5;
      }
    </style>
  </defs>
  <g>
    <path class="cls-1" d="M136.83,660.05c-32.17,0-53.77-5.32-71.69-11.6-9.65-4.35-13.33-13.54-13.33-22.24,0-14.5,10.57-29,27.57-22.72,17,5.32,37.22,10.15,57.9,10.15,22.52,0,39.06-5.8,39.06-21.27,0-34.32-118.56-2.42-118.56-78.31,0-58.49,56.52-63.81,86.86-63.81,26.65,0,48.71,4.35,65.71,11.6,10.11,4.35,14.25,13.05,14.25,22.23,0,14.51-11.03,28.52-26.65,22.72-16.08-5.8-33.55-9.19-53.31-9.19-13.79,0-32.17.97-32.17,15.95,0,29.49,119.02.48,119.02,80.73,0,56.56-58.82,65.74-94.67,65.74Z"/>
    <path class="cls-1" d="M461.99,594.31c0,12.57,3.22,16.92,11.49,17.89,9.19,1.93,14.71,13.05,13.33,23.68-.92,10.64-8.27,21.27-27.57,21.27s-35.85-10.15-42.28-29c-15.17,18.85-39.06,30.45-74.45,30.45-59.28,0-96.96-37.22-96.96-98.61,0-70.58,45.49-110.7,109.37-110.7s107.08,43.99,107.08,107.32v37.71ZM354.92,492.31c-34.01,0-59.28,22.24-59.28,63.33s25.27,59.94,56.98,59.94c34.01,0,60.2-23.69,60.2-61.88,0-40.12-24.82-61.39-57.9-61.39Z"/>
    <path class="cls-1" d="M529.85,453.63c15.62,0,25.73,8.7,25.73,25.14v114.09c0,12.08,2.76,16.43,11.49,17.4,9.19,1.45,14.71,13.54,13.33,25.14-.92,11.12-8.73,21.75-29.41,21.75-26.66,0-45.96-17.89-45.96-51.72v-126.65c0-16.92,9.19-25.14,24.82-25.14Z"/>
    <path class="cls-1" d="M601.9,559.98c0-82.18,41.36-110.7,105.7-110.7,17.46,0,23.44,13.05,23.44,26.1s-5.97,25.62-23.44,25.62c-40.44,0-55.15,27.55-55.15,61.39v70.58c0,15.96-10.11,24.17-25.28,24.17s-25.28-7.74-25.28-24.17v-72.99Z"/>
    <path class="cls-1" d="M950.14,594.31c0,12.57,3.22,16.92,11.49,17.89,9.19,1.93,14.71,13.05,13.33,23.68-.92,10.64-8.27,21.27-27.57,21.27s-35.85-10.15-42.28-29c-15.17,18.85-39.06,30.45-74.45,30.45-59.28,0-96.96-37.22-96.96-98.61,0-70.58,45.49-110.7,109.37-110.7s107.08,43.99,107.08,107.32v37.71ZM843.07,492.31c-34.01,0-59.28,22.24-59.28,63.33s25.27,59.94,56.98,59.94c34.01,0,60.2-23.69,60.2-61.88,0-40.12-24.82-61.39-57.9-61.39Z"/>
  </g>
  <g>
    <path class="cls-2" d="M256.53,344.98c0,12.72,3.26,17.12,11.63,18.1,9.3,1.96,14.88,13.21,13.49,23.97-.93,10.76-8.37,21.53-27.91,21.53s-36.28-10.27-42.79-29.35c-15.35,19.08-39.54,30.82-75.35,30.82-60,0-98.14-37.67-98.14-99.8,0-71.43,46.05-112.03,110.7-112.03s108.38,44.52,108.38,108.61v38.16ZM148.15,241.75c-34.42,0-60,22.5-60,64.09s25.58,60.66,57.68,60.66c34.42,0,60.93-23.97,60.93-62.62,0-40.61-25.12-62.13-58.61-62.13Z"/>
    <path class="cls-2" d="M378.39,411.51c-32.56,0-54.42-5.38-72.56-11.74-9.77-4.4-13.49-13.7-13.49-22.5,0-14.68,10.7-29.35,27.91-22.99,17.21,5.38,37.68,10.27,58.61,10.27,22.79,0,39.54-5.87,39.54-21.53,0-34.74-120-2.45-120-79.25,0-59.2,57.21-64.58,87.91-64.58,26.98,0,49.3,4.4,66.51,11.74,10.23,4.4,14.42,13.21,14.42,22.5,0,14.68-11.16,28.86-26.98,22.99-16.28-5.87-33.95-9.3-53.96-9.3-13.95,0-32.56.98-32.56,16.14,0,29.84,120.47.49,120.47,81.7,0,57.24-59.54,66.54-95.82,66.54Z"/>
    <path class="cls-2" d="M624.45,288.72c28.37,23.97,26.51,70.45,55.35,70.45,11.63,0,18.14,11.74,18.14,23.48,0,12.72-6.98,25.93-23.72,25.93-63.26,0-59.54-73.87-87.45-88.55l-31.63,26.42v37.67c0,16.14-13.02,24.46-25.58,24.46s-25.58-8.32-25.58-24.46V75.9c0-16.14,12.56-24.46,25.58-24.46s25.58,8.32,25.58,24.46v209.88l94.89-78.77c4.65-3.91,10.23-5.38,14.88-5.38,12.56,0,22.79,11.25,22.79,23.48,0,6.36-2.79,13.21-9.77,19.08l-53.49,44.52Z"/>
  </g>
</svg>